<svg t="1749630203600" class="icon" viewBox="0 0 1024 1024" version="1.1" xmlns="http://www.w3.org/2000/svg" p-id="42428" width="200" height="200"><path d="M853.333333 0H170.666667C76.8 0 0 76.8 0 170.666667v682.666666c0 93.866667 76.8 170.666667 170.666667 170.666667h682.666666c93.866667 0 170.666667-76.8 170.666667-170.666667V170.666667c0-93.866667-76.8-170.666667-170.666667-170.666667z m123.733334 806.4c0 93.866667-76.8 170.666667-170.666667 170.666667H217.6c-93.866667 0-170.666667-76.8-170.666667-170.666667V217.6c0-93.866667 76.8-170.666667 170.666667-170.666667h588.8c93.866667 0 170.666667 76.8 170.666667 170.666667v588.8z" p-id="42429" fill="#1296db"></path><path d="M512 618.666667c29.866667 0 55.466667-25.6 55.466667-55.466667V290.133333c0-29.866667-25.6-55.466667-55.466667-55.466666-29.866667 0-55.466667 25.6-55.466667 55.466666v273.066667c0 29.866667 25.6 55.466667 55.466667 55.466667z m0 55.466666c-29.866667 0-55.466667 25.6-55.466667 55.466667 0 29.866667 25.6 55.466667 55.466667 55.466667 29.866667 0 55.466667-25.6 55.466667-55.466667 0-29.866667-25.6-55.466667-55.466667-55.466667z" p-id="42430" fill="#1296db"></path></svg>