<svg viewBox="0 0 1024 1024" xmlns="http://www.w3.org/2000/svg" width="200" height="200">
  <path d="M512 64C264.6 64 64 264.6 64 512s200.6 448 448 448 448-200.6 448-448S759.4 64 512 64zm0 832c-212.1 0-384-171.9-384-384s171.9-384 384-384 384 171.9 384 384-171.9 384-384 384z" fill="#007AFF"/>
  <path d="M464 336c0-4.4 3.6-8 8-8h80c4.4 0 8 3.6 8 8v48c0 4.4-3.6 8-8 8h-80c-4.4 0-8-3.6-8-8v-48zm8 136h80c4.4 0 8 3.6 8 8v224c0 4.4-3.6 8-8 8h-80c-4.4 0-8-3.6-8-8V480c0-4.4 3.6-8 8-8z" fill="#007AFF"/>
</svg> 