<svg t="1715996800" class="icon" viewBox="0 0 1024 1024" version="1.1" xmlns="http://www.w3.org/2000/svg" p-id="4" width="200" height="200">
  <path d="M469.333 85.333c212.075 0 384 171.925 384 384 0 98.816-37.461 188.928-98.773 256.811l195.541 195.541c16.683 16.683 16.683 43.691 0 60.331s-43.691 16.683-60.331 0l-195.541-195.541c-67.883 61.312-157.995 98.773-256.811 98.773-212.075 0-384-171.925-384-384s171.925-384 384-384z m0 85.334c-165.12 0-298.667 133.547-298.667 298.667s133.547 298.667 298.667 298.667 298.667-133.547 298.667-298.667-133.547-298.667-298.667-298.667z" fill="#ffffff" p-id="5"></path>
</svg> 