<?xml version="1.0" standalone="no"?><!DOCTYPE svg PUBLIC "-//W3C//DTD SVG 1.1//EN" "http://www.w3.org/Graphics/SVG/1.1/DTD/svg11.dtd"><svg t="1749692013629" class="icon" viewBox="0 0 1024 1024" version="1.1" xmlns="http://www.w3.org/2000/svg" p-id="5117" xmlns:xlink="http://www.w3.org/1999/xlink" width="200" height="200"><path d="M674.816 797.696c-12.8 0-25.088-4.096-36.352-11.776l-126.464-92.16-126.464 92.16c-22.016 15.872-50.176 15.872-72.192 0s-30.72-43.008-22.528-68.608l48.128-148.992-126.464-92.16c-22.016-15.872-30.72-43.008-22.528-68.608 8.192-25.6 31.232-42.496 58.368-42.496h156.672l48.128-148.992c8.192-25.6 31.232-42.496 58.368-42.496 27.136 0 50.176 16.896 58.368 42.496l48.128 148.992h156.672c27.136 0 50.176 16.896 58.368 42.496 8.192 25.6-0.512 52.736-22.528 68.608l-126.464 92.16 48.128 148.992c8.192 25.6-0.512 52.736-22.528 68.608-9.728 7.68-22.528 11.776-34.816 11.776zM512 643.072l150.528 109.568c11.264 8.192 21.504 2.048 24.064 0 3.072-2.048 11.776-9.728 7.68-23.04l-57.344-177.152 150.528-109.568c11.264-8.192 8.704-19.456 7.68-23.04-1.024-3.072-5.632-14.336-19.456-14.336H588.8l-57.344-177.152c-4.096-13.312-15.872-14.336-19.456-14.336-3.584 0-15.36 1.024-19.456 14.336L435.2 406.016H248.832c-13.824 0-18.432 10.752-19.456 14.336-1.024 3.072-3.584 14.848 7.68 23.04L387.584 552.96l-57.344 177.152c-4.096 13.312 4.608 20.992 7.68 23.04 3.072 2.048 12.8 8.192 24.064 0l150.016-110.08z" p-id="5118" fill="#f4ea2a"></path></svg>