<svg t="1749647518593" class="icon" viewBox="0 0 1024 1024" version="1.1" xmlns="http://www.w3.org/2000/svg" p-id="24917" width="200" height="200"><path d="M512 0C229.23264 0 0 229.23264 0 511.99488 0 794.76736 229.23264 1024 512 1024s512-229.23264 512-512.00512C1024 229.23264 794.76736 0 512 0z m0 968.64768c-252.19584 0-456.64256-204.45696-456.64256-456.6528S259.80928 55.35232 512 55.35232c252.20096 0 456.6528 204.45184 456.6528 456.64256-0.00512 252.20608-204.45184 456.6528-456.6528 456.6528z m0 0" p-id="24918"></path><path d="M439.71584 764.96384h144.54784c-10.18368 41.91744-38.51776 72.27392-72.27392 72.27392-33.74592 0-62.08-30.35648-72.27392-72.27392z m359.20896-58.47552l-71.55712-104.33024V418.29376c0-85.14048-61.21472-159.80032-150.62016-185.20576-6.65088-26.81344-33.1008-46.33088-64.5376-46.33088-31.4368 0-57.89184 19.40992-64.57856 46.2592-89.3696 25.40544-150.58432 100.06016-150.58432 185.20576v183.86432l-71.552 104.33024a13.91616 13.91616 0 0 0-0.79872 14.9248c2.45248 4.44416 8.23808 7.44448 14.09024 7.44448h546.03776c5.78048 0 11.56608-3.00032 14.09536-7.44448 2.42176-4.4032 3.32288-9.6512 0-14.88384v0.03072z m0 0" p-id="24919"></path></svg>