<svg t="1749630093736" class="icon" viewBox="0 0 1024 1024" version="1.1" xmlns="http://www.w3.org/2000/svg" p-id="31407" width="200" height="200"><path d="M578.064516 792.774194H445.935484v-165.161291c0-95.033806 40.23329-142.864516 137.083871-208.532645l7.498322-5.086968C658.861419 367.616 677.16129 345.154065 677.16129 297.290323A165.16129 165.16129 0 0 0 346.83871 297.290323H214.709677a297.290323 297.290323 0 1 1 594.580646 0c0 104.216774-43.272258 157.266581-144.582194 226.006709l-7.531355 5.12C593.754839 571.458065 578.064516 590.088258 578.064516 627.612903v165.161291z m-66.064516 231.225806a82.580645 82.580645 0 1 1 0-165.16129 82.580645 82.580645 0 0 1 0 165.16129z" fill="#d81e06" p-id="31408"></path></svg>